inDegrees=no
num_controls=7
num_derivatives=13
num_iterations=110
num_multipliers=7
num_parameters=0
num_slacks=7
num_states=26
objective=0.445714
objective_accelerations=0.057765
objective_balance=0.003743
objective_effort=0.023297
objective_height=0.355344
objective_ligament=0.005566
solver_duration=1520.855902
status=Solve_Succeeded
success=true
DataType=double
version=3
OpenSimVersion=4.5
endheader
time	/jointset/ground_pelvis/pelvis_tilt/value	/jointset/ground_pelvis/pelvis_tx/value	/jointset/ground_pelvis/pelvis_ty/value	/jointset/hip_l/hip_flexion_l/value	/jointset/hip_l/hip_adduction_l/value	/jointset/hip_l/hip_rotation_l/value	/jointset/back/lumbar_extension/value	/jointset/patellofemoral_l/patellar_flexion_l/value	/jointset/knee_l/knee_flexion_l/value	/jointset/knee_l/knee_adduction_l/value	/jointset/knee_l/knee_rotation_l/value	/jointset/ankle_l/ankle_angle_l/value	/jointset/subtalar_l/subtalar_angle_l/value	/jointset/ground_pelvis/pelvis_tilt/speed	/jointset/ground_pelvis/pelvis_tx/speed	/jointset/ground_pelvis/pelvis_ty/speed	/jointset/hip_l/hip_flexion_l/speed	/jointset/hip_l/hip_adduction_l/speed	/jointset/hip_l/hip_rotation_l/speed	/jointset/back/lumbar_extension/speed	/jointset/patellofemoral_l/patellar_flexion_l/speed	/jointset/knee_l/knee_flexion_l/speed	/jointset/knee_l/knee_adduction_l/speed	/jointset/knee_l/knee_rotation_l/speed	/jointset/ankle_l/ankle_angle_l/speed	/jointset/subtalar_l/subtalar_angle_l/speed	/forceset/tau_hip_flexion_l	/forceset/tau_hip_adduction_l	/forceset/tau_hip_rotation_l	/forceset/tau_knee_flexion_l	/forceset/tau_ankle_angle_l	/forceset/tau_subtalar_angle_l	/forceset/tau_lumbar_extension	lambda_cid13_p0	lambda_cid13_p1	lambda_cid13_p2	lambda_cid13_p3	lambda_cid13_p4	lambda_cid13_p5	lambda_cid14_p0	/jointset/ground_pelvis/pelvis_tilt/accel	/jointset/ground_pelvis/pelvis_tx/accel	/jointset/ground_pelvis/pelvis_ty/accel	/jointset/hip_l/hip_flexion_l/accel	/jointset/hip_l/hip_adduction_l/accel	/jointset/hip_l/hip_rotation_l/accel	/jointset/back/lumbar_extension/accel	/jointset/patellofemoral_l/patellar_flexion_l/accel	/jointset/knee_l/knee_flexion_l/accel	/jointset/knee_l/knee_adduction_l/accel	/jointset/knee_l/knee_rotation_l/accel	/jointset/ankle_l/ankle_angle_l/accel	/jointset/subtalar_l/subtalar_angle_l/accel	gamma_cid13_p0	gamma_cid13_p1	gamma_cid13_p2	gamma_cid13_p3	gamma_cid13_p4	gamma_cid13_p5	gamma_cid14_p0
0	-0.03983629370133341	0.06905129562058512	0.8959633868473093	0.1955287580552426	-0.3218757018266041	-0.4860103457710342	-0.1379045077516729	0.07015288079084851	0.07015288079084844	-0.1745328907360534	-0.1203457423475303	-0.06701059314715049	0.003990105661567309	0	0	0	0	0	0	0	0	0	0	0	0	0	0.1077380336763967	-0.09888059229597047	-0.03072729502810682	-0.2346613965301294	0.1923927398540225	-0.01672015702678872	-0.05270615341389433	26.00179239949236	-0.5414618877066987	3.46303161666827	0.3432336835914924	-515.1898854841997	-80.0092385316651	-39.98167207497173	-4.590631630727714	-1.896872994179923	-0.9863460479973285	12.71883341722036	-2.122722933978699	3.347561806504507	-2.866827506526132	10.15408749465641	10.15408749465606	0.6553321333961811	-0.8239562471251971	2.209730490156357	-1.127081463783193	-2.88521883202677e-08	1.085443560308741e-07	1.244291609161359e-07	1.09938512120431e-08	-1.579045522087758e-08	-4.263302138398576e-08	-7.985061589311685e-09
0.01	-0.04005542371209622	0.0689577293140039	0.8959155020848382	0.1961440081875974	-0.3219801426715871	-0.4858422796821299	-0.1380534027061862	0.07064608721246564	0.07064608721246475	-0.1745034929747961	-0.1203807960565034	-0.06690477915521481	0.003933024637133129	-0.043611519506851	-0.01862776964989831	-0.009544784899289206	0.1224890319809033	-0.02077803156093709	0.033476883096008	-0.02948425566877424	0.09819706153238672	0.0981970615323875	0.005873885392595377	-0.006963090364215069	0.02107165425060771	-0.01134620307772911	0.1026244168647221	-0.1006364310442129	-0.02969495464824362	-0.2280466807591817	0.1817265637534458	-0.01046225330297339	-0.04839189744363755	22.78553468675667	-2.643382013309995	3.737888252408649	1.421189936573449	-516.0646301345557	-84.48144021375424	-39.99167750298928	-4.214250808600682	-1.832903001724881	-0.9337227297489479	11.92977745607151	-2.038852305544237	3.327286883187554	-2.945014311911369	9.585883660857398	9.585883660857663	0.5525994727028216	-0.6253247030817833	2.042212543051475	-1.127920898997199	-6.669707198675602e-08	1.448466679010334e-07	1.953538625710526e-07	4.676564835840463e-08	-2.360393293701222e-07	-8.36245493755295e-08	-1.267009075229988e-08
0.02	-0.04070423665751691	0.06868045050065759	0.8957731338696032	0.1979673165132721	-0.3222890656398581	-0.4853435376978593	-0.138488298160359	0.072107937885074	0.07210793788507383	-0.1744155198134921	-0.1204840485235188	-0.06659098269066545	0.003764575348075764	-0.08593658693117172	-0.03674250135301788	-0.01889669055277247	0.2416116386636512	-0.0408964246575959	0.06613517907355965	-0.05720009993187595	0.1937288501978766	0.1937288501978771	0.01171508000565371	-0.01363975160891581	0.04159649452275473	-0.02227365292463597	0.09751080005308523	-0.1023922697924525	-0.02866261426838756	-0.2214319649882166	0.1710603876528761	-0.004204349579151025	-0.04407764147335518	19.63187093522195	-4.757413064754003	4.015991714379515	2.348162349520779	-516.0184059644489	-88.79131595347927	-40.02111106630026	-4.333341214221628	-1.794265404824194	-0.9477701988361401	12.04554835758926	-1.990795241123057	3.183844382813235	-2.513145225391605	9.621032921277047	9.621032921276479	0.6487939774887328	-0.766670423222337	2.100367694464194	-1.043330817618776	-1.045419556532443e-07	1.811489797711927e-07	2.662785642259694e-07	8.253744550476616e-08	-4.562882035193667e-07	-1.246160773670732e-07	-1.735511991528808e-08
0.03	-0.04177066463478003	0.06822471931759366	0.8955378891803099	0.2009662010844881	-0.3227958228932316	-0.4845224476037971	-0.1391914544980431	0.07451243668023304	0.07451243668023455	-0.1742691859887495	-0.1206529764629509	-0.06607430518986464	0.003489185658470605	-0.1271494053481508	-0.05430237701664484	-0.02814312641190174	0.3576102083258931	-0.06034097170718465	0.09795263062134818	-0.08319770139861336	0.2867273917969941	0.286727391796999	0.01752705234141344	-0.02008905298684533	0.06166086350527192	-0.03272459370402141	0.09337537005454775	-0.09884207174778996	-0.02802637580876047	-0.2178744216648741	0.1675950889897969	-0.004290407524756325	-0.04058566982520731	18.55343974965176	-4.604318312715014	4.075088171721086	2.466681161615251	-515.9173047388304	-87.80806370856156	-40.06876255016519	-3.985323654078006	-1.721628258696038	-0.9118042928827351	11.2937317655773	-1.904223443646214	3.16112980821188	-2.60804767630794	9.072740713657646	9.072740713658666	0.5437645927775361	-0.5755106370311474	1.947748814448621	-1.034080481337588	-1.340958650334721e-07	1.980264825114197e-07	3.23534142621266e-07	1.097832602371775e-07	-6.237962029305792e-07	-1.602697210020477e-07	-2.205495706603618e-08
0.04	-0.04324323509594299	0.0675964334555806	0.8952104353297387	0.205108415451331	-0.3234936134184543	-0.4833870961407654	-0.1401475828641938	0.07783361607826778	0.07783361607826768	-0.1740654592944111	-0.1208846875445535	-0.06535932853637803	0.003111665606423744	-0.1671650837107979	-0.07125343714284575	-0.03733852280831383	0.4702775977895623	-0.0791030790275499	0.1289874528671444	-0.1077945056250717	0.3770649707732522	0.3770649707732641	0.02319365392348915	-0.02619638004289082	0.08125632505991373	-0.04269972541297404	0.08923994005598165	-0.0952918737031289	-0.02739013734914074	-0.2143168783415521	0.164129790326708	-0.004376465470368389	-0.03709369817707289	17.53227607046813	-4.461161325087954	4.135667597912771	2.444503697232592	-514.9793210986898	-86.67149618058622	-40.13312468074916	-4.093913203355203	-1.672502297339002	-0.9375623062927042	11.37931231787472	-1.854307295278362	3.027318522414763	-2.232985777335764	9.088840396705146	9.088840396705113	0.6197198267519192	-0.6982755588455382	2.006586208889098	-0.9481690035322339	-1.634788264902718e-07	2.145034737231944e-07	3.805078834235807e-07	1.368532815177549e-07	-7.902167616255437e-07	-1.958133051657528e-07	-2.675509953611954e-08
0.05	-0.04511058678201319	0.06680158976521157	0.8947910103988599	0.2103620312307028	-0.3243755399806205	-0.4819456417867049	-0.1413418973096353	0.08204575833547033	0.08204575833547066	-0.1738054965529179	-0.1211764098360273	-0.06445051294678855	0.002636966989835315	-0.2060907601578099	-0.08761932816831187	-0.04655433580102149	0.579891853775451	-0.09715659677898898	0.1591688874042985	-0.1308347546749496	0.4649186241481617	0.4649186241481618	0.02877495326377721	-0.03209480998469215	0.100418143257686	-0.05215476990932002	0.08420060324705257	-0.09180636967765191	-0.02656714837875072	-0.2100661070648363	0.1590526886963104	-0.003650157411547726	-0.03300104188552813	16.01516919673822	-4.580106847000216	4.2336099989683	2.808990175877887	-514.1177519497095	-86.09159210550233	-40.21231406698847	-3.759732545143758	-1.604209001399113	-0.9149310489586634	10.66940209006193	-1.762086844214558	2.99332502284384	-2.304500150523055	8.566904718978194	8.566904718976671	0.5238226423178818	-0.5275877114988488	1.85767831831279	-0.9314641662218872	-1.813554515987095e-07	2.18016681243281e-07	4.166884778443272e-07	1.538817047201133e-07	-8.94552747608738e-07	-2.187531364803637e-07	-2.985619454177006e-08
0.06	-0.04736076276850931	0.06584597186533808	0.894279159287414	0.2166951735401564	-0.3254342442861284	-0.480206419266578	-0.142759605381918	0.08712309250864349	0.08712309250864321	-0.173490423287092	-0.121525508626845	-0.06335273943660306	0.002070259529576189	-0.2437299437955984	-0.1034082790437417	-0.0558237589217086	0.6861829038059761	-0.1144586276959438	0.1885410860805764	-0.1524732309931936	0.5501033539668441	0.5501033539668417	0.03421575879009024	-0.03767167991255112	0.1190479091791176	-0.06110149414711052	0.07916126643813692	-0.08832086565217134	-0.02574415940838393	-0.2058153357881086	0.1539755870659178	-0.002923849352720245	-0.02890838559397779	14.54927071489212	-4.706927958634309	4.331562724562466	3.046354038900521	-512.5063551666401	-85.37140609669629	-40.30423538217244	-3.836614641510443	-1.557114267331754	-0.9482843318885942	10.71467112680199	-1.704009928381518	2.865471350239527	-1.952631231008974	8.555055685459717	8.555055685461545	0.5916210639569041	-0.6339635560570716	1.900175753620951	-0.8465049518211526	-1.987475993872161e-07	2.209840452395071e-07	4.519935713647972e-07	1.704873237928625e-07	-9.962746463198577e-07	-2.411622834644864e-07	-3.288996123312869e-08
0.07000000000000001	-0.04998178941711285	0.06473533329922845	0.8936740921353656	0.2240762958337892	-0.3266622336122871	-0.4781777514582267	-0.1443859728382326	0.09304005589816491	0.09304005589816562	-0.1731213732810749	-0.1219294020008122	-0.06207091115229221	0.001416822451756598	-0.2802656686606461	-0.1186206502757419	-0.06521180618233681	0.7895008302755716	-0.1310078533361955	0.2170607937250374	-0.172580918908283	0.6328493285254986	0.6328493285255049	0.0395677117070555	-0.04305209179068367	0.1372304199701691	-0.06949480945639271	0.07402605855859098	-0.08538530642343196	-0.02495080977204953	-0.2023411243498609	0.1494429974141311	-0.001796895946593035	-0.0248003782278657	13.25933351031555	-5.01513102834178	4.431672029948893	3.197395288263174	-511.0651968265284	-85.02284182865174	-40.40652244534515	-3.530604472686561	-1.488446667067615	-0.9375856152243824	10.0592179036421	-1.610734606295568	2.825405923762371	-2.006936367501027	8.068375644037749	8.068375644037889	0.5030901963208457	-0.4817840873744719	1.764184187787028	-0.8221629396454809	-2.060302690136022e-07	2.063555426599334e-07	4.680972108973091e-07	1.775039391505964e-07	-1.043288521483072e-06	-2.534504958421978e-07	-3.512932250807403e-08
0.08	-0.05296188392710524	0.06347554139761209	0.8929744403722958	0.2324743702914374	-0.3280517863397376	-0.4758678494829875	-0.146206836932847	0.09977128049386684	0.0997712804938664	-0.1726995821877345	-0.1223854403102964	-0.06060987867088286	0.0006821685970114248	-0.315543516073071	-0.1332389461450919	-0.07474068112596718	0.8895733366093185	-0.1467713079543899	0.2447879194580172	-0.1913725586530526	0.7129555952029293	0.7129555952029345	0.04476397625420014	-0.04810066701614179	0.1548887485988114	-0.07734484953222448	0.06889085067903601	-0.08244974719469286	-0.02415746013572481	-0.1988669129116214	0.14491040776234	-0.0006699425404683704	-0.02069237086175605	12.01426783762077	-5.329898666599258	4.531352332042067	3.236861830175532	-508.9629166590688	-84.54999920133413	-40.51666302236526	-3.585039150985843	-1.438299194801735	-0.9764498684890286	10.0655870996323	-1.546855723970068	2.706954967943299	-1.689421596944977	8.027114109214928	8.02711410921485	0.5604833899927725	-0.567596225522192	1.795339321139115	-0.7378499051310802	-2.126607142424322e-07	1.90591822881921e-07	4.829620469467269e-07	1.839019091073615e-07	-1.08677284673997e-06	-2.650857446969149e-07	-3.731743182067011e-08
0.09	-0.05628929308949195	0.06207251143972175	0.8921785867244802	0.2418585145776802	-0.3295951132330097	-0.4732849556649215	-0.1482082690369765	0.1072914658706643	0.1072914658706638	-0.1722264093532923	-0.1228910228768207	-0.05897450196465599	-0.0001281391626181525	-0.3497257063164151	-0.1472663134469994	-0.08446195514059968	0.9867142030883304	-0.1617605383386902	0.2716588628724649	-0.2087048424422884	0.7906400710842371	0.7906400710842413	0.04983517932474151	-0.05296123879866095	0.1720960936895088	-0.08462576027923414	0.06351519518467419	-0.07923382254901463	-0.02336105701276851	-0.1957997199204368	0.1407693263542062	0.0002940133867608352	-0.01644342028415662	10.87001222033158	-5.590919597439962	4.621769155911317	3.293784702173399	-507.1152279026118	-83.92066712235902	-40.631983672288	-3.302925738970131	-1.369808816245326	-0.9749702308118479	9.457112882480338	-1.454987499527419	2.657298495919231	-1.723778810292589	7.57291046561403	7.572910465613891	0.4752120067081079	-0.4370286011777202	1.669850840828114	-0.7096535499410414	-2.114217891347182e-07	1.573529220679448e-07	4.832704044752292e-07	1.815001838542378e-07	-1.088003724666472e-06	-2.696959400148415e-07	-3.949815635128276e-08
